<svg xmlns="http://www.w3.org/2000/svg" viewBox="0 0 192 192">
  <rect width="192" height="192" rx="36" fill="#0f172a"/>
  <path d="M96 36c33.137 0 60 26.863 60 60 0 24.853-15.11 46.176-36.652 55.32-4.05 1.72-8.594-1.248-8.594-5.648v-19.02c0-2.86 1.637-5.464 4.213-6.707C125.402 115.82 132 106.677 132 96c0-19.882-16.118-36-36-36s-36 16.118-36 36c0 14.577 8.66 27.131 21.117 32.82 2.573 1.176 4.223 3.764 4.223 6.597v18.83c0 4.442-4.618 7.397-8.687 5.631C55.153 150.66 40 128.954 40 104c0-33.137 24.863-68 56-68z" fill="#6366f1"/>
  <circle cx="96" cy="96" r="12" fill="#818cf8"/>
</svg>
